<svg xmlns="http://www.w3.org/2000/svg" viewBox="0 0 512 512">
  <defs>
    <linearGradient id="bg" x1="0" y1="0" x2="1" y2="1">
      <stop offset="0" stop-color="#18a36a"/>
      <stop offset="1" stop-color="#0e6847"/>
    </linearGradient>
    <linearGradient id="sky" x1="0" y1="0" x2="0" y2="1">
      <stop offset="0" stop-color="#bce8f1"/>
      <stop offset="1" stop-color="#e7f7f1"/>
    </linearGradient>
  </defs>
  <rect width="512" height="512" rx="112" fill="url(#bg)"/>
  <path d="M0 178c86-68 172-62 256 8 77-61 164-68 256-4v-182H0z" fill="url(#sky)"/>
  <path d="M0 280c92-76 163-73 256 14 88-78 172-76 256-15v233H0z" fill="#74bc65"/>
  <path d="M0 346c98-74 170-69 256 16 86-85 162-89 256-18v168H0z" fill="#d5e9a8"/>
  <path d="M188 512h140l-8-72c-6-55-7-93 12-132 15-31 37-54 66-70H114c29 16 51 39 66 70 19 39 18 77 12 132z" fill="#303b3a"/>
  <path d="M255 332h7l5 41h-17zM247 402h18l3 52h-24zM238 487h36l2 25h-40z" fill="#f7d94b"/>
  <path d="M165 402c-5-37-3-62 12-89 12-22 29-39 50-51h38c21 12 38 29 50 51 15 27 17 52 12 89l-6 38H171z" fill="#f4f7f4"/>
  <rect x="187" y="369" width="138" height="62" rx="20" fill="#19362b"/>
  <path d="M203 388c11-17 22-25 35-30h36c13 5 24 13 35 30z" fill="#9dd6e2"/>
  <rect x="211" y="401" width="20" height="12" rx="3" fill="#e95d52"/>
  <rect x="281" y="401" width="20" height="12" rx="3" fill="#e95d52"/>
  <rect x="242" y="414" width="28" height="13" rx="2" fill="#f4f7f4"/>
  <g transform="translate(362 104)">
    <rect x="0" y="0" width="92" height="92" rx="6" transform="rotate(45 46 46)" fill="#ffd845" stroke="#172c26" stroke-width="9"/>
    <path d="M46 22c18 14 17 29 6 39-10 9-10 19 3 25" fill="none" stroke="#172c26" stroke-width="11" stroke-linecap="round"/>
    <path d="M59 83h1" stroke="#172c26" stroke-width="12" stroke-linecap="round"/>
  </g>
  <path d="M256 454c-24 0-43 19-43 43h86c0-24-19-43-43-43z" fill="#fff" opacity=".95"/>
  <circle cx="222" cy="465" r="5" fill="#18a36a"/>
  <circle cx="290" cy="465" r="5" fill="#18a36a"/>
</svg>
